# xmcd
#
# Track frame offsets: 
#        150
#        5440
#        28263
#        39505
#        58809
#        64904
#        71619
#        97295
#        107343
#        119182
#        127191
#        132639
#        153587
#        160747
#        182592
#        189327
#        194977
#        216152
#        224142
#        241802
#        247152
#        253808
#        259464
#        281725
#        290743
#        307919
#        313071
#
# Disc length: 4255 seconds
#
# Revision: 0
# Processed by: cddbd v1.5.2PL0 Copyright (c) Steve Scherf et al.
# Submitted via: ExactAudioCopy v1.0b1
#
DISCID=c4109d1b
DTITLE=Hank Williams - The Complete Mothers Best Recordings CD7
DYEAR=2010
DGENRE=Country
TTITLE0=Introduction
TTITLE1=Cold, Cold Heart
TTITLE2=Jerry Rivers and the Drifting Cowboys: Fire on the Mountain
TTITLE3=Farther Along
TTITLE4=Closing
TTITLE5=Introduction
TTITLE6=May You Never Be Alone
TTITLE7=Jerry Rivers and the Drifting Cowboys: Arkansas Traveler
TTITLE8=I’ll Have a New Life
TTITLE9=Closing
TTITLE10=Introduction
TTITLE11=Next Sunday Darling Is My Birthday
TTITLE12=Jerry Rivers and the Drifting Cowboys: Old Joe Clark
TTITLE13=Deck of Cards
TTITLE14=Closing
TTITLE15=Introduction
TTITLE16=Tennessee Border
TTITLE17=Don Helms and the Drifting Cowboys: Blue Bonnet Rag
TTITLE18=Dear Brother (Hank’s only known solo recording!)
TTITLE19=Jerry Rivers and the Drifting Cowboys: Whistling Rufus
TTITLE20=Closing
TTITLE21=Introduction
TTITLE22=I Can’t Help It (If I’m Still in Love with You)
TTITLE23=Don Helms and the Drifting Cowboys: Panhandle Rag
TTITLE24=Gathering Flowers for the Master’s Bouquet
TTITLE25=Jerry Rivers and the Drifting Cowboys Bill Cheatham
TTITLE26=Closing
EXTD=
EXTT0=
EXTT1=
EXTT2=
EXTT3=
EXTT4=
EXTT5=
EXTT6=
EXTT7=
EXTT8=
EXTT9=
EXTT10=
EXTT11=
EXTT12=
EXTT13=
EXTT14=
EXTT15=
EXTT16=
EXTT17=
EXTT18=
EXTT19=
EXTT20=
EXTT21=
EXTT22=
EXTT23=
EXTT24=
EXTT25=
EXTT26=
PLAYORDER=
